<svg xmlns="http://www.w3.org/2000/svg" xmlns:xlink="http://www.w3.org/1999/xlink" version="1.1" x="0px" y="0px" viewBox="0 0 100 53.1625" enable-background="new 0 0 100 42.53" xml:space="preserve"><path d="M5,26.378v11.15h90v-11.15H5z M47.014,34.888H10.376v-5.869h36.637V34.888z M89.624,34.888H52.987v-5.869h36.637V34.888z"/><polygon points="24.647,5.4 16.459,5.4 16.459,25.271 25.956,25.271 25.956,10.368 24.647,10.368 "/><polygon points="28.639,5.4 28.639,10.368 26.896,10.368 26.896,25.271 36.827,25.271 36.827,5.4 "/><polygon points="48.208,5.001 40.021,5.001 40.021,24.873 49.518,24.873 49.518,9.969 48.208,9.969 "/><polygon points="52.201,5.001 52.201,9.969 50.458,9.969 50.458,24.873 60.389,24.873 60.389,5.001 "/><polygon points="71.771,5.134 63.583,5.134 63.583,25.005 73.08,25.005 73.08,10.102 71.771,10.102 "/><polygon points="75.763,5.134 75.763,10.102 74.02,10.102 74.02,25.005 83.951,25.005 83.951,5.134 "/><text x="0" y="57.53" fill="#000000" font-size="5px" font-weight="bold" font-family="'Helvetica Neue', Helvetica, Arial-Unicode, Arial, Sans-serif">Created by jon trillana</text><text x="0" y="62.53" fill="#000000" font-size="5px" font-weight="bold" font-family="'Helvetica Neue', Helvetica, Arial-Unicode, Arial, Sans-serif">from the Noun Project</text></svg>